<!DOCTYPE svg PUBLIC "-//W3C//DTD SVG 1.1//EN" "http://www.w3.org/Graphics/SVG/1.1/DTD/svg11.dtd">
<!-- Uploaded to: SVG Repo, www.svgrepo.com, Transformed by: SVG Repo Mixer Tools -->
<svg width="800px" height="800px" viewBox="0 0 32.00 32.00" version="1.1" xmlns="http://www.w3.org/2000/svg" xmlns:xlink="http://www.w3.org/1999/xlink" fill="#6b97ae" stroke="#6b97ae" stroke-width="1.056">
<g id="SVGRepo_bgCarrier" stroke-width="0"/>
<g id="SVGRepo_tracerCarrier" stroke-linecap="round" stroke-linejoin="round" stroke="#CCCCCC" stroke-width="1.408"> <g id="icomoon-ignore"> </g> <path d="M26.664 4.82h-21.328c-1.178 0-2.132 0.955-2.132 2.133v13.868c0 1.178 0.955 2.133 2.132 2.133h14.968l4.226 4.226v-4.226h2.134c1.178 0 2.133-0.955 2.133-2.133v-13.868c-0-1.178-0.955-2.133-2.133-2.133zM27.73 20.821c0 0.588-0.479 1.066-1.066 1.066h-3.2v2.718l-2.718-2.718h-15.41c-0.588 0-1.066-0.478-1.066-1.066v-13.868c0-0.588 0.479-1.066 1.066-1.066h21.328c0.588 0 1.066 0.478 1.066 1.066v13.868z" fill="#5c7fad"> </path> <path d="M16 12.824c-0.589 0-1.066 0.478-1.066 1.066s0.477 1.066 1.066 1.066 1.066-0.477 1.066-1.066c0-0.588-0.477-1.066-1.066-1.066z" fill="#5c7fad"> </path> <path d="M20.265 12.824c-0.589 0-1.066 0.478-1.066 1.066s0.477 1.066 1.066 1.066 1.066-0.477 1.066-1.066c0-0.588-0.477-1.066-1.066-1.066z" fill="#5c7fad"> </path> <path d="M11.835 12.824c-0.589 0-1.066 0.478-1.066 1.066s0.477 1.066 1.066 1.066 1.066-0.477 1.066-1.066c0-0.588-0.477-1.066-1.066-1.066z" fill="#5c7fad"> </path> </g>
<g id="SVGRepo_iconCarrier"> <g id="icomoon-ignore"> </g> <path d="M26.664 4.82h-21.328c-1.178 0-2.132 0.955-2.132 2.133v13.868c0 1.178 0.955 2.133 2.132 2.133h14.968l4.226 4.226v-4.226h2.134c1.178 0 2.133-0.955 2.133-2.133v-13.868c-0-1.178-0.955-2.133-2.133-2.133zM27.73 20.821c0 0.588-0.479 1.066-1.066 1.066h-3.2v2.718l-2.718-2.718h-15.41c-0.588 0-1.066-0.478-1.066-1.066v-13.868c0-0.588 0.479-1.066 1.066-1.066h21.328c0.588 0 1.066 0.478 1.066 1.066v13.868z" fill="#5c7fad"> </path> <path d="M16 12.824c-0.589 0-1.066 0.478-1.066 1.066s0.477 1.066 1.066 1.066 1.066-0.477 1.066-1.066c0-0.588-0.477-1.066-1.066-1.066z" fill="#5c7fad"> </path> <path d="M20.265 12.824c-0.589 0-1.066 0.478-1.066 1.066s0.477 1.066 1.066 1.066 1.066-0.477 1.066-1.066c0-0.588-0.477-1.066-1.066-1.066z" fill="#5c7fad"> </path> <path d="M11.835 12.824c-0.589 0-1.066 0.478-1.066 1.066s0.477 1.066 1.066 1.066 1.066-0.477 1.066-1.066c0-0.588-0.477-1.066-1.066-1.066z" fill="#5c7fad"> </path> </g>
</svg>