<?xml version="1.0" encoding="utf-8"?>
<svg width="1024px" height="1024px" viewBox="0 0 1024 1024" class="icon"  version="1.1" xmlns="http://www.w3.org/2000/svg"><path d="M871.03488 181.3504c-4.25472-29.696-29.54752-52.59776-60.42112-52.59776h-268.68224c-30.8736 0-56.16128 22.90176-60.42112 52.59776h-0.6144v6.07744c-0.03584 0.89088-0.26624 1.72544-0.26624 2.62144v50.80576H100.09088c-30.8736 0-56.16128 22.90176-60.42112 52.59776h-0.6144v6.07744c-0.03584 0.89088-0.26624 1.72544-0.26624 2.62144v155.43296c0 0.896 0.22528 1.73056 0.26624 2.62144v283.71456h5.34016v0.3584c0 0.896 0.22528 1.73056 0.26624 2.62144v6.07744h0.6144c4.25472 29.696 29.54752 52.59776 60.42112 52.59776h704.91648c30.8736 0 56.1664-22.90176 60.42112-52.59776h0.87552V181.3504h-0.87552z" fill="#928B82" /><path d="M971.92448 271.0272c-4.25472-29.696-29.54752-52.59776-60.42112-52.59776h-268.68224c-30.8736 0-56.16128 22.90176-60.42112 52.59776h-0.6144v6.07744c-0.03584 0.89088-0.26624 1.72544-0.26624 2.62144v50.80576H200.98048c-30.8736 0-56.16128 22.90176-60.42112 52.59776h-0.6144v6.07744c-0.03584 0.89088-0.26624 1.72544-0.26624 2.62144v155.43296c0 0.896 0.22528 1.73056 0.26624 2.62144v283.71456h5.34016v0.3584c0 0.896 0.22528 1.73056 0.26624 2.62144v6.07744h0.6144c4.25472 29.696 29.54752 52.59776 60.42112 52.59776h704.91648c30.8736 0 56.1664-22.90176 60.42112-52.59776H972.8V271.0272h-0.87552z" fill="#DCC9A5" /><path d="M215.48544 429.78816h362.6752v53.71392H215.48544zM215.48544 533.4784h362.6752v53.71392H215.48544z" fill="#928B82" /></svg>