<!DOCTYPE svg PUBLIC "-//W3C//DTD SVG 1.1//EN" "http://www.w3.org/Graphics/SVG/1.1/DTD/svg11.dtd">
<!-- Uploaded to: SVG Repo, www.svgrepo.com, Transformed by: SVG Repo Mixer Tools -->
<svg fill="#60afd7" width="800px" height="800px" viewBox="0 0 24 24" xmlns="http://www.w3.org/2000/svg" stroke="#60afd7">
<g id="SVGRepo_bgCarrier" stroke-width="0"/>
<g id="SVGRepo_tracerCarrier" stroke-linecap="round" stroke-linejoin="round"/>
<g id="SVGRepo_iconCarrier">
<path d="M13,3a7,7,0,0,0,0,14A5,5,0,0,0,13,7a3,3,0,0,0,0,6,1,1,0,0,0,0-2,1,1,0,0,1,0-2,3,3,0,0,1,0,6A5,5,0,0,1,13,5a7,7,0,0,1,0,14,9,9,0,0,1-9-9,1,1,0,0,0-2,0A11,11,0,0,0,13,21,9,9,0,0,0,13,3Z"/>
</g>
</svg>