<?xml version="1.0" encoding="utf-8"?>
<svg width="1024px" height="1024px" viewBox="0 0 1024 1024" class="icon"  version="1.1" xmlns="http://www.w3.org/2000/svg"><path d="M524.476043 150.182476h386.159374c27.34081 0 49.507927 19.620714 49.507927 43.820244V826.380917c0 24.204649-22.166093 43.818196-49.507927 43.818197H115.248532c-27.34081 0-49.509975-19.613547-49.509975-43.818197V194.001696c0-24.19953 22.168141-43.820244 49.509975-43.820244h409.227511z" fill="#DCE5F7" /><path d="M910.635417 173.859824c14.000608 0 25.829555 9.224183 25.829555 20.141872V826.380917c0 10.916665-11.828947 20.139824-25.829555 20.139825H115.248532c-14.002656 0-25.831603-9.223159-25.831603-20.139825V194.001696c0-10.918713 11.828947-20.141872 25.831603-20.141872h795.386885m0-23.677348H115.248532c-27.34081 0-49.508951 19.620714-49.508951 43.81922V826.380917c0 24.204649 22.168141 43.818196 49.508951 43.818197h795.386885c27.34081 0 49.506903-19.613547 49.506903-43.818197V194.001696c0-24.19953-22.166093-43.81922-49.506903-43.81922z" fill="#4E6DC4" /><path d="M410.833987 288.08959H844.261027c19.355528 0 35.048619 13.710848 35.048618 30.621338v455.823508c0 16.913562-15.69309 30.620315-35.048618 30.620315H181.620874c-19.355528 0-35.050666-13.705729-35.050666-30.620315v-455.823508c0-16.91049 15.694114-30.621338 35.050666-30.621338h229.213113z" fill="#FFFFFF" /><path d="M844.262051 311.766938c6.940919 0 11.370247 4.111923 11.370246 6.942966v455.823508c0 2.830019-4.429328 6.941943-11.370246 6.941943H181.621898c-6.942966 0-11.372294-4.111923-11.372294-6.941943v-455.823508c0-2.831043 4.430352-6.942966 11.372294-6.942966h662.640153m0-23.677348H181.621898c-19.356552 0-35.050666 13.710848-35.050666 30.621338v455.823508c0 16.913562 15.694114 30.619291 35.050666 30.619291h662.641177c19.355528 0 35.048619-13.705729 35.048618-30.619291v-455.823508c-0.001024-16.91049-15.69309-30.621338-35.049642-30.621338zM199.986306 231.414466c-3.168925 9.634761-14.4675 15.146336-25.234678 12.310173s-16.927896-12.943958-13.758971-22.578719c3.168925-9.634761 14.4675-15.146336 25.234678-12.310174s16.927896 12.943958 13.758971 22.57872zM272.00128 231.414466c-3.168925 9.634761-14.466476 15.146336-25.234678 12.310173-10.768202-2.835138-16.927896-12.943958-13.758971-22.578719 3.168925-9.634761 14.4675-15.146336 25.234678-12.310174s16.927896 12.943958 13.758971 22.57872zM346.720335 231.414466c-3.168925 9.634761-14.466476 15.146336-25.234677 12.310173s-16.927896-12.943958-13.758971-22.578719c3.168925-9.634761 14.466476-15.146336 25.234677-12.310174s16.927896 12.943958 13.758971 22.57872z" fill="#4E6DC4" /><path d="M426.310013 392.899611H693.345449c7.918729 0 14.33849 8.152175 14.33849 18.206729v271.031661c0 10.056602-6.419761 18.206729-14.33849 18.206728H332.536452c-7.918729 0-14.339514-8.149103-14.339514-18.206728V411.10634c0-10.054554 6.420785-18.206729 14.339514-18.206729h93.773561z" fill="#DCE5F7" /><path d="M684.006591 416.576959v260.089398h-342.131281V416.576959h342.131281m9.338858-23.677348H332.536452c-7.917705 0-14.33849 8.152175-14.33849 18.206729v271.031661c0 10.057626 6.420785 18.206729 14.33849 18.206728H693.345449c7.918729 0 14.33849-8.149103 14.33849-18.206728V411.10634c0-10.054554-6.419761-18.206729-14.33849-18.206729z" fill="#4E6DC4" /><path d="M474.432624 488.310365c-0.290783-9.556946 8.684595-13.876718 17.370214-4.863455l77.122114 54.888444c3.679844 3.847761 3.53138 9.962404-0.330715 13.656583l-73.825203 58.744397c-5.809525 5.581199-19.019694 6.336826-19.641192-4.310558l-0.695218-118.115411z" fill="#4E6DC4" /></svg>